<svg width="20" height="19" viewBox="0 0 20 19" fill="none" xmlns="http://www.w3.org/2000/svg">
<path d="M14.9394 0.708984C16.2804 0.708984 17.5704 1.23898 18.5194 2.18998C19.4694 3.13898 20.0004 4.41898 20.0004 5.75898V13.659C20.0004 16.449 17.7304 18.709 14.9394 18.709H5.06043C2.26943 18.709 0.000427246 16.449 0.000427246 13.659V5.75898C0.000427246 2.96898 2.25943 0.708984 5.06043 0.708984H14.9394ZM16.0704 5.90898C15.8604 5.89798 15.6604 5.96898 15.5094 6.10898L11.0004 9.70898C10.4204 10.19 9.58943 10.19 9.00043 9.70898L4.50043 6.10898C4.18943 5.87898 3.75943 5.90898 3.50043 6.17898C3.23043 6.44898 3.20043 6.87898 3.42943 7.17898L3.56043 7.30898L8.11043 10.859C8.67043 11.299 9.34943 11.539 10.0604 11.539C10.7694 11.539 11.4604 11.299 12.0194 10.859L16.5304 7.24898L16.6104 7.16898C16.8494 6.87898 16.8494 6.45898 16.5994 6.16898C16.4604 6.01998 16.2694 5.92898 16.0704 5.90898Z" fill="#FF5555"/>
</svg>
