<svg width="48" height="49" viewBox="0 0 48 49" fill="none" xmlns="http://www.w3.org/2000/svg">
<circle cx="24" cy="24.9761" r="24" fill="#FF5555"/>
<path d="M24 14.9761L22.6985 20.1821C22.4445 21.1979 22.3176 21.7059 22.0531 22.1192C21.8192 22.4848 21.5087 22.7952 21.1431 23.0292C20.7298 23.2936 20.2218 23.4206 19.206 23.6746L14 24.9761L19.206 26.2776C20.2218 26.5315 20.7298 26.6585 21.1431 26.923C21.5087 27.1569 21.8192 27.4674 22.0531 27.833C22.3176 28.2463 22.4445 28.7542 22.6985 29.7701L24 34.9761L25.3015 29.7701C25.5555 28.7542 25.6824 28.2463 25.9469 27.833C26.1808 27.4674 26.4913 27.1569 26.8569 26.923C27.2702 26.6585 27.7782 26.5315 28.794 26.2776L34 24.9761L28.794 23.6746C27.7782 23.4206 27.2702 23.2936 26.8569 23.0292C26.4913 22.7952 26.1808 22.4848 25.9469 22.1192C25.6824 21.7059 25.5555 21.1979 25.3015 20.1821L24 14.9761Z" stroke="white" stroke-width="2" stroke-linecap="round" stroke-linejoin="round"/>
</svg>
